<svg width="60" height="60" viewBox="0 0 60 60" fill="none" xmlns="http://www.w3.org/2000/svg">
<rect width="60" height="60" rx="30" fill="white"/>
<path d="M32.6673 28.1663C32.834 28.333 33.0007 28.333 33.334 28.333H45.0007C46.0006 28.333 46.6673 27.6663 46.6673 26.6663C46.6673 26.333 46.6673 26.1663 46.5006 25.9997L40.6673 14.333C40.1673 13.4997 39.1673 13.1663 38.334 13.6663C38.1673 13.833 37.834 13.9997 37.6673 14.333L31.834 25.9997C31.5007 26.6663 31.834 27.6663 32.6673 28.1663ZM39.1673 18.6663L42.334 24.9997H36.0007L39.1673 18.6663ZM20.834 13.333C16.6673 13.333 13.334 16.6663 13.334 20.833C13.334 24.9997 16.6673 28.333 20.834 28.333C25.0007 28.333 28.334 24.9997 28.334 20.833C28.334 16.6663 25.0007 13.333 20.834 13.333ZM20.834 24.9997C18.5007 24.9997 16.6673 23.1663 16.6673 20.833C16.6673 18.4997 18.5007 16.6663 20.834 16.6663C23.1673 16.6663 25.0007 18.4997 25.0007 20.833C25.0007 23.1663 23.1673 24.9997 20.834 24.9997ZM27.834 32.1663C27.1673 31.4997 26.1673 31.4997 25.5007 32.1663L20.834 36.833L16.1673 32.1663C15.5007 31.4997 14.5007 31.4997 13.834 32.1663C13.1673 32.833 13.1673 33.833 13.834 34.4997L18.5007 39.1663L13.834 43.833C13.1673 44.4997 13.1673 45.4997 13.834 46.1663C14.5007 46.833 15.5007 46.833 16.1673 46.1663L20.834 41.4997L25.5007 46.1663C26.1673 46.833 27.1673 46.833 27.834 46.1663C28.5007 45.4997 28.5007 44.4997 27.834 43.833L23.1673 39.1663L27.834 34.4997C28.5007 33.833 28.5007 32.833 27.834 32.1663ZM45.0007 31.6663H33.334C32.334 31.6663 31.6673 32.333 31.6673 33.333V44.9997C31.6673 45.9997 32.334 46.6663 33.334 46.6663H45.0007C46.0006 46.6663 46.6673 45.9997 46.6673 44.9997V33.333C46.6673 32.333 46.0006 31.6663 45.0007 31.6663ZM43.334 43.333H35.0007V34.9997H43.334V43.333Z" fill="black"/>
</svg>
